<?xml version="1.0" encoding="UTF-8"?>
<svg xmlns="http://www.w3.org/2000/svg" xmlns:xlink="http://www.w3.org/1999/xlink" width="30pt" height="30pt" viewBox="0 0 30 30" version="1.1">
<g id="surface1">
<path style=" stroke:none;fill-rule:nonzero;fill:rgb(0%,0%,0%);fill-opacity:1;" d="M 29.199219 4.867188 L 25.109375 0.773438 C 24.078125 -0.257812 22.285156 -0.257812 21.25 0.777344 L 2.925781 19.285156 C 2.84375 19.367188 2.785156 19.464844 2.753906 19.578125 L 0.0273438 29.128906 C -0.0429688 29.367188 0.0234375 29.625 0.199219 29.800781 C 0.328125 29.929688 0.503906 30 0.683594 30 C 0.746094 30 0.808594 29.992188 0.867188 29.972656 L 10.414062 27.246094 C 10.523438 27.210938 10.625 27.152344 10.707031 27.074219 L 29.199219 8.726562 C 29.714844 8.210938 30 7.527344 30 6.796875 C 30 6.070312 29.714844 5.382812 29.199219 4.867188 Z M 18.28125 5.734375 L 20.789062 8.246094 L 7.6875 21.347656 L 6.746094 19.46875 C 6.628906 19.238281 6.394531 19.089844 6.136719 19.089844 L 5.042969 19.089844 Z M 1.675781 28.324219 L 2.5625 25.214844 L 4.785156 27.4375 Z M 9.546875 26.078125 L 6.285156 27.007812 L 2.992188 23.714844 L 3.921875 20.453125 L 5.714844 20.453125 L 6.890625 22.804688 C 6.957031 22.9375 7.0625 23.042969 7.195312 23.109375 L 9.546875 24.285156 Z M 10.910156 24.957031 L 10.910156 23.863281 C 10.910156 23.605469 10.761719 23.371094 10.53125 23.253906 L 8.652344 22.3125 L 21.753906 9.210938 L 24.265625 11.71875 Z M 28.238281 7.78125 L 25.234375 10.761719 L 19.238281 4.765625 L 22.21875 1.761719 C 22.734375 1.246094 23.628906 1.246094 24.144531 1.761719 L 28.238281 5.855469 C 28.496094 6.113281 28.636719 6.453125 28.636719 6.816406 C 28.636719 7.183594 28.496094 7.523438 28.238281 7.78125 Z M 28.238281 7.78125 "/>
</g>
</svg>
